<?xml version="1.0" standalone="no"?>
<!DOCTYPE svg PUBLIC "-//W3C//DTD SVG 20010904//EN"
 "http://www.w3.org/TR/2001/REC-SVG-20010904/DTD/svg10.dtd">
<svg version="1.0" xmlns="http://www.w3.org/2000/svg"
 width="512.000000pt" height="512.000000pt" viewBox="0 0 512.000000 512.000000"
 preserveAspectRatio="xMidYMid meet">

<g transform="translate(0.000000,512.000000) scale(0.100000,-0.100000)"
fill="#000000" stroke="none">
<path d="M2710 5109 c-349 -36 -684 -155 -980 -350 -141 -92 -224 -160 -349
-288 -310 -316 -501 -672 -590 -1101 -61 -295 -58 -625 10 -925 57 -255 180
-539 320 -738 l50 -71 -555 -555 c-630 -632 -611 -608 -611 -756 0 -60 6 -91
22 -127 30 -66 96 -133 162 -165 47 -23 69 -28 136 -28 148 0 124 -19 755 611
l556 554 74 -51 c346 -238 778 -370 1212 -370 508 1 935 143 1338 447 113 84
304 270 384 371 462 590 596 1355 360 2063 -159 478 -491 896 -925 1166 -396
245 -901 360 -1369 313z m505 -165 c751 -103 1382 -618 1634 -1334 151 -430
152 -916 4 -1345 -291 -840 -1096 -1394 -1983 -1362 -318 12 -551 69 -835 206
-531 256 -922 735 -1070 1316 -100 388 -83 804 49 1180 225 646 760 1133 1425
1299 253 64 506 76 776 40z m-2247 -4222 c-293 -293 -546 -540 -562 -549 -16
-8 -50 -16 -75 -16 -100 -1 -174 70 -174 166 0 29 6 64 13 77 6 14 253 267
548 562 l537 538 122 -122 123 -123 -532 -533z"/>
<path d="M2635 4840 c-418 -67 -782 -253 -1075 -549 -523 -527 -695 -1306
-445 -2011 191 -541 624 -973 1165 -1165 226 -80 405 -110 660 -109 236 0 419
30 620 100 690 239 1178 831 1284 1557 10 64 16 175 16 274 0 529 -207 1017
-586 1383 -298 287 -648 458 -1070 524 -139 22 -423 20 -569 -4z m527 -146
c403 -55 744 -223 1027 -505 390 -388 577 -939 506 -1486 -52 -395 -223 -742
-504 -1024 -345 -344 -770 -521 -1256 -522 -223 0 -402 30 -611 104 -480 169
-894 583 -1063 1063 -74 209 -104 388 -104 611 1 486 178 911 522 1256 233
232 505 386 827 468 194 49 454 63 656 35z"/>
<path d="M2820 4513 c-268 -18 -538 -111 -765 -261 -113 -75 -254 -198 -261
-229 -10 -37 4 -72 36 -88 40 -21 63 -10 161 75 187 161 409 272 649 325 114
25 382 31 505 12 289 -46 540 -165 749 -355 32 -29 70 -58 83 -63 53 -20 114
41 94 94 -23 60 -251 235 -418 320 -259 132 -544 190 -833 170z"/>
</g>
</svg>
